<svg id="visual" viewBox="0 0 4000 300" width="4000" height="300" xmlns="http://www.w3.org/2000/svg" xmlns:xlink="http://www.w3.org/1999/xlink" version="1.1"><path d="M0 105L95.2 105.3C190.3 105.7 380.7 106.3 571.2 97.5C761.7 88.7 952.3 70.3 1142.8 68.8C1333.3 67.3 1523.7 82.7 1714.2 84.7C1904.7 86.7 2095.3 75.3 2285.8 76.5C2476.3 77.7 2666.7 91.3 2857.2 92.7C3047.7 94 3238.3 83 3428.8 80.5C3619.3 78 3809.7 84 3904.8 87L4000 90L4000 301L3904.8 301C3809.7 301 3619.3 301 3428.8 301C3238.3 301 3047.7 301 2857.2 301C2666.7 301 2476.3 301 2285.8 301C2095.3 301 1904.7 301 1714.2 301C1523.7 301 1333.3 301 1142.8 301C952.3 301 761.7 301 571.2 301C380.7 301 190.3 301 95.2 301L0 301Z" fill="#888277"></path><path d="M0 131L95.2 137C190.3 143 380.7 155 571.2 158.7C761.7 162.3 952.3 157.7 1142.8 160.8C1333.3 164 1523.7 175 1714.2 175.8C1904.7 176.7 2095.3 167.3 2285.8 158.5C2476.3 149.7 2666.7 141.3 2857.2 136.2C3047.7 131 3238.3 129 3428.8 137.7C3619.3 146.3 3809.7 165.7 3904.8 175.3L4000 185L4000 301L3904.8 301C3809.7 301 3619.3 301 3428.8 301C3238.3 301 3047.7 301 2857.2 301C2666.7 301 2476.3 301 2285.8 301C2095.3 301 1904.7 301 1714.2 301C1523.7 301 1333.3 301 1142.8 301C952.3 301 761.7 301 571.2 301C380.7 301 190.3 301 95.2 301L0 301Z" fill="#6d484c"></path><path d="M0 220L95.2 217.8C190.3 215.7 380.7 211.3 571.2 216.3C761.7 221.3 952.3 235.7 1142.8 234.2C1333.3 232.7 1523.7 215.3 1714.2 212.7C1904.7 210 2095.3 222 2285.8 220.5C2476.3 219 2666.7 204 2857.2 205.2C3047.7 206.3 3238.3 223.7 3428.8 232.3C3619.3 241 3809.7 241 3904.8 241L4000 241L4000 301L3904.8 301C3809.7 301 3619.3 301 3428.8 301C3238.3 301 3047.7 301 2857.2 301C2666.7 301 2476.3 301 2285.8 301C2095.3 301 1904.7 301 1714.2 301C1523.7 301 1333.3 301 1142.8 301C952.3 301 761.7 301 571.2 301C380.7 301 190.3 301 95.2 301L0 301Z" fill="#252047"></path></svg>