<svg id="visual" viewBox="0 0 3000 200" width="3000" height="200" xmlns="http://www.w3.org/2000/svg" xmlns:xlink="http://www.w3.org/1999/xlink" version="1.1"><path d="M0 55L31.3 57.7C62.7 60.3 125.3 65.7 187.8 69.7C250.3 73.7 312.7 76.3 375.2 73C437.7 69.7 500.3 60.3 562.8 59.2C625.3 58 687.7 65 750.2 69.2C812.7 73.3 875.3 74.7 937.8 70.5C1000.3 66.3 1062.7 56.7 1125.2 55.2C1187.7 53.7 1250.3 60.3 1312.8 64.3C1375.3 68.3 1437.7 69.7 1500.2 69C1562.7 68.3 1625.3 65.7 1687.8 66.8C1750.3 68 1812.7 73 1875.2 68.2C1937.7 63.3 2000.3 48.7 2062.8 48.7C2125.3 48.7 2187.7 63.3 2250.2 64.3C2312.7 65.3 2375.3 52.7 2437.8 45C2500.3 37.3 2562.7 34.7 2625.2 35C2687.7 35.3 2750.3 38.7 2812.8 41.3C2875.3 44 2937.7 46 2968.8 47L3000 48L3000 201L2968.8 201C2937.7 201 2875.3 201 2812.8 201C2750.3 201 2687.7 201 2625.2 201C2562.7 201 2500.3 201 2437.8 201C2375.3 201 2312.7 201 2250.2 201C2187.7 201 2125.3 201 2062.8 201C2000.3 201 1937.7 201 1875.2 201C1812.7 201 1750.3 201 1687.8 201C1625.3 201 1562.7 201 1500.2 201C1437.7 201 1375.3 201 1312.8 201C1250.3 201 1187.7 201 1125.2 201C1062.7 201 1000.3 201 937.8 201C875.3 201 812.7 201 750.2 201C687.7 201 625.3 201 562.8 201C500.3 201 437.7 201 375.2 201C312.7 201 250.3 201 187.8 201C125.3 201 62.7 201 31.3 201L0 201Z" fill="#79806c"></path><path d="M0 100L31.3 95C62.7 90 125.3 80 187.8 78.2C250.3 76.3 312.7 82.7 375.2 89.7C437.7 96.7 500.3 104.3 562.8 107.7C625.3 111 687.7 110 750.2 104C812.7 98 875.3 87 937.8 88.7C1000.3 90.3 1062.7 104.7 1125.2 104.2C1187.7 103.7 1250.3 88.3 1312.8 82.2C1375.3 76 1437.7 79 1500.2 78.8C1562.7 78.7 1625.3 75.3 1687.8 80.5C1750.3 85.7 1812.7 99.3 1875.2 106.3C1937.7 113.3 2000.3 113.7 2062.8 107.5C2125.3 101.3 2187.7 88.7 2250.2 87.3C2312.7 86 2375.3 96 2437.8 96.5C2500.3 97 2562.7 88 2625.2 84.8C2687.7 81.7 2750.3 84.3 2812.8 90.3C2875.3 96.3 2937.7 105.7 2968.8 110.3L3000 115L3000 201L2968.8 201C2937.7 201 2875.3 201 2812.8 201C2750.3 201 2687.7 201 2625.2 201C2562.7 201 2500.3 201 2437.8 201C2375.3 201 2312.7 201 2250.2 201C2187.7 201 2125.3 201 2062.8 201C2000.3 201 1937.7 201 1875.2 201C1812.7 201 1750.3 201 1687.8 201C1625.3 201 1562.7 201 1500.2 201C1437.7 201 1375.3 201 1312.8 201C1250.3 201 1187.7 201 1125.2 201C1062.7 201 1000.3 201 937.8 201C875.3 201 812.7 201 750.2 201C687.7 201 625.3 201 562.8 201C500.3 201 437.7 201 375.2 201C312.7 201 250.3 201 187.8 201C125.3 201 62.7 201 31.3 201L0 201Z" fill="#616853"></path><path d="M0 132L31.3 131.7C62.7 131.3 125.3 130.7 187.8 130.7C250.3 130.7 312.7 131.3 375.2 129.3C437.7 127.3 500.3 122.7 562.8 121.5C625.3 120.3 687.7 122.7 750.2 122.3C812.7 122 875.3 119 937.8 123.2C1000.3 127.3 1062.7 138.7 1125.2 142.7C1187.7 146.7 1250.3 143.3 1312.8 143.5C1375.3 143.7 1437.7 147.3 1500.2 146.7C1562.7 146 1625.3 141 1687.8 135.2C1750.3 129.3 1812.7 122.7 1875.2 118.3C1937.7 114 2000.3 112 2062.8 115.5C2125.3 119 2187.7 128 2250.2 128.8C2312.7 129.7 2375.3 122.3 2437.8 119.8C2500.3 117.3 2562.7 119.7 2625.2 120.7C2687.7 121.7 2750.3 121.3 2812.8 121.3C2875.3 121.3 2937.7 121.7 2968.8 121.8L3000 122L3000 201L2968.8 201C2937.7 201 2875.3 201 2812.8 201C2750.3 201 2687.7 201 2625.2 201C2562.7 201 2500.3 201 2437.8 201C2375.3 201 2312.7 201 2250.2 201C2187.7 201 2125.3 201 2062.8 201C2000.3 201 1937.7 201 1875.2 201C1812.7 201 1750.3 201 1687.8 201C1625.3 201 1562.7 201 1500.2 201C1437.7 201 1375.3 201 1312.8 201C1250.3 201 1187.7 201 1125.2 201C1062.7 201 1000.3 201 937.8 201C875.3 201 812.7 201 750.2 201C687.7 201 625.3 201 562.8 201C500.3 201 437.7 201 375.2 201C312.7 201 250.3 201 187.8 201C125.3 201 62.7 201 31.3 201L0 201Z" fill="#4d5441"></path><path d="M0 177L31.3 174.2C62.7 171.3 125.3 165.7 187.8 159.8C250.3 154 312.7 148 375.2 150.2C437.7 152.3 500.3 162.7 562.8 167.5C625.3 172.3 687.7 171.7 750.2 166.8C812.7 162 875.3 153 937.8 154.2C1000.3 155.3 1062.7 166.7 1125.2 171C1187.7 175.3 1250.3 172.7 1312.8 169C1375.3 165.3 1437.7 160.7 1500.2 156.2C1562.7 151.7 1625.3 147.3 1687.8 148.8C1750.3 150.3 1812.7 157.7 1875.2 160.3C1937.7 163 2000.3 161 2062.8 160.7C2125.3 160.3 2187.7 161.7 2250.2 159C2312.7 156.3 2375.3 149.7 2437.8 151.2C2500.3 152.7 2562.7 162.3 2625.2 166C2687.7 169.7 2750.3 167.3 2812.8 168C2875.3 168.7 2937.7 172.3 2968.8 174.2L3000 176L3000 201L2968.8 201C2937.7 201 2875.3 201 2812.8 201C2750.3 201 2687.7 201 2625.2 201C2562.7 201 2500.3 201 2437.8 201C2375.3 201 2312.7 201 2250.2 201C2187.7 201 2125.3 201 2062.8 201C2000.3 201 1937.7 201 1875.2 201C1812.7 201 1750.3 201 1687.8 201C1625.3 201 1562.7 201 1500.2 201C1437.7 201 1375.3 201 1312.8 201C1250.3 201 1187.7 201 1125.2 201C1062.7 201 1000.3 201 937.8 201C875.3 201 812.7 201 750.2 201C687.7 201 625.3 201 562.8 201C500.3 201 437.7 201 375.2 201C312.7 201 250.3 201 187.8 201C125.3 201 62.7 201 31.3 201L0 201Z" fill="#3e4435"></path></svg>